<mxfile host="app.diagrams.net" modified="2023-08-03T11:24:23.654Z" agent="Mozilla/5.0 (Windows NT 10.0; Win64; x64) AppleWebKit/537.36 (KHTML, like Gecko) Chrome/115.0.0.0 Safari/537.36" etag="uYwdjvJGJiKfTxe7rDlp" version="21.6.1" type="device">
  <diagram name="Sayfa -1" id="YLHSeteXFRvvcjnJkYMy">
    <mxGraphModel dx="794" dy="757" grid="1" gridSize="10" guides="1" tooltips="1" connect="1" arrows="1" fold="1" page="1" pageScale="1" pageWidth="827" pageHeight="1169" math="0" shadow="0">
      <root>
        <mxCell id="0" />
        <mxCell id="1" parent="0" />
        <mxCell id="7QgMV3gTabwz5gpbyrnK-4" style="edgeStyle=orthogonalEdgeStyle;rounded=0;orthogonalLoop=1;jettySize=auto;html=1;exitX=0.5;exitY=1;exitDx=0;exitDy=0;" edge="1" parent="1" source="7QgMV3gTabwz5gpbyrnK-1">
          <mxGeometry relative="1" as="geometry">
            <mxPoint x="430" y="450" as="targetPoint" />
          </mxGeometry>
        </mxCell>
        <mxCell id="7QgMV3gTabwz5gpbyrnK-12" style="edgeStyle=orthogonalEdgeStyle;rounded=0;orthogonalLoop=1;jettySize=auto;html=1;" edge="1" parent="1" source="7QgMV3gTabwz5gpbyrnK-1" target="7QgMV3gTabwz5gpbyrnK-13">
          <mxGeometry relative="1" as="geometry">
            <mxPoint x="160" y="230" as="targetPoint" />
          </mxGeometry>
        </mxCell>
        <mxCell id="7QgMV3gTabwz5gpbyrnK-1" value="muhasebe/erp sistemi" style="rounded=0;whiteSpace=wrap;html=1;" vertex="1" parent="1">
          <mxGeometry x="350" y="250" width="160" height="90" as="geometry" />
        </mxCell>
        <mxCell id="7QgMV3gTabwz5gpbyrnK-2" value="" style="endArrow=classic;html=1;rounded=0;exitX=0;exitY=1;exitDx=0;exitDy=0;" edge="1" parent="1" source="7QgMV3gTabwz5gpbyrnK-1">
          <mxGeometry width="50" height="50" relative="1" as="geometry">
            <mxPoint x="380" y="420" as="sourcePoint" />
            <mxPoint x="160" y="440" as="targetPoint" />
          </mxGeometry>
        </mxCell>
        <mxCell id="7QgMV3gTabwz5gpbyrnK-3" value="" style="endArrow=classic;html=1;rounded=0;exitX=1;exitY=1;exitDx=0;exitDy=0;" edge="1" parent="1" source="7QgMV3gTabwz5gpbyrnK-1">
          <mxGeometry width="50" height="50" relative="1" as="geometry">
            <mxPoint x="360" y="350" as="sourcePoint" />
            <mxPoint x="680" y="440" as="targetPoint" />
          </mxGeometry>
        </mxCell>
        <mxCell id="7QgMV3gTabwz5gpbyrnK-5" value="Customer" style="rounded=0;whiteSpace=wrap;html=1;" vertex="1" parent="1">
          <mxGeometry x="100" y="450" width="180" height="40" as="geometry" />
        </mxCell>
        <mxCell id="7QgMV3gTabwz5gpbyrnK-6" value="Product" style="rounded=0;whiteSpace=wrap;html=1;" vertex="1" parent="1">
          <mxGeometry x="340" y="450" width="190" height="40" as="geometry" />
        </mxCell>
        <mxCell id="7QgMV3gTabwz5gpbyrnK-7" value="Orders" style="rounded=0;whiteSpace=wrap;html=1;" vertex="1" parent="1">
          <mxGeometry x="590" y="450" width="190" height="40" as="geometry" />
        </mxCell>
        <mxCell id="7QgMV3gTabwz5gpbyrnK-8" value="&lt;ul&gt;&lt;li&gt;UUID uuid&lt;/li&gt;&lt;li&gt;Date creation_date&lt;/li&gt;&lt;li&gt;Date update_date&lt;/li&gt;&lt;li&gt;String name&lt;/li&gt;&lt;li&gt;int stocks&lt;/li&gt;&lt;li&gt;String detail&lt;/li&gt;&lt;li&gt;int price&lt;/li&gt;&lt;li&gt;int last_price&lt;/li&gt;&lt;/ul&gt;" style="rounded=0;whiteSpace=wrap;html=1;align=left;verticalAlign=top;" vertex="1" parent="1">
          <mxGeometry x="340" y="490" width="190" height="140" as="geometry" />
        </mxCell>
        <mxCell id="7QgMV3gTabwz5gpbyrnK-10" value="&lt;ul&gt;&lt;li&gt;UUID uuid&lt;/li&gt;&lt;li&gt;Date creation_date&lt;/li&gt;&lt;li&gt;Date update_date&lt;/li&gt;&lt;li&gt;String name&lt;/li&gt;&lt;li&gt;List&amp;lt;Order&amp;gt; orders&lt;/li&gt;&lt;/ul&gt;" style="rounded=0;whiteSpace=wrap;html=1;align=left;verticalAlign=top;" vertex="1" parent="1">
          <mxGeometry x="100" y="490" width="180" height="140" as="geometry" />
        </mxCell>
        <mxCell id="7QgMV3gTabwz5gpbyrnK-11" value="&lt;ul&gt;&lt;li&gt;UUID uuid&lt;/li&gt;&lt;li&gt;Date creation_date&lt;/li&gt;&lt;li&gt;Date update_date&lt;/li&gt;&lt;li&gt;Product product&lt;/li&gt;&lt;li&gt;int amount&lt;/li&gt;&lt;li&gt;StatusEnum statusEnum&lt;/li&gt;&lt;/ul&gt;" style="rounded=0;whiteSpace=wrap;html=1;align=left;verticalAlign=top;" vertex="1" parent="1">
          <mxGeometry x="590" y="490" width="190" height="140" as="geometry" />
        </mxCell>
        <mxCell id="7QgMV3gTabwz5gpbyrnK-13" value="&lt;ul&gt;&lt;li&gt;key = kdv oranı&lt;/li&gt;&lt;li&gt;value kdv değeri&lt;/li&gt;&lt;/ul&gt;" style="rounded=0;whiteSpace=wrap;html=1;align=left;verticalAlign=top;" vertex="1" parent="1">
          <mxGeometry x="100" y="80" width="180" height="120" as="geometry" />
        </mxCell>
        <mxCell id="7QgMV3gTabwz5gpbyrnK-14" value="SettingTable" style="rounded=0;whiteSpace=wrap;html=1;" vertex="1" parent="1">
          <mxGeometry x="100" y="40" width="180" height="40" as="geometry" />
        </mxCell>
      </root>
    </mxGraphModel>
  </diagram>
</mxfile>
